<?xml version="1.0" standalone="no"?>
<!DOCTYPE svg PUBLIC "-//W3C//DTD SVG 20010904//EN"
 "http://www.w3.org/TR/2001/REC-SVG-20010904/DTD/svg10.dtd">
<svg version="1.0" xmlns="http://www.w3.org/2000/svg"
 width="3421.000000pt" height="3421.000000pt" viewBox="0 0 3421.000000 3421.000000"
 preserveAspectRatio="xMidYMid meet">
<metadata>
Created by potrace 1.14, written by Peter Selinger 2001-2017
</metadata>
<g transform="translate(0.000000,3421.000000) scale(0.100000,-0.100000)"
fill="#000000" stroke="none">
<path d="M10295 33875 c-184 -39 -316 -157 -426 -383 -74 -152 -226 -535 -314
-792 -42 -124 -78 -232 -81 -240 -2 -8 -24 -85 -49 -170 -39 -133 -109 -406
-129 -505 -4 -16 -9 -40 -11 -52 -3 -13 -7 -33 -10 -45 -21 -101 -22 -104 -49
-268 -14 -80 -28 -169 -31 -199 -4 -30 -8 -61 -10 -70 -1 -9 -6 -47 -10 -86
-4 -38 -9 -79 -11 -89 -2 -10 -6 -58 -9 -105 -4 -47 -8 -97 -11 -111 -22 -129
-22 -875 1 -1100 2 -19 6 -71 9 -115 3 -44 8 -91 10 -105 5 -27 14 -109 22
-187 7 -69 11 -103 19 -148 15 -97 65 -392 69 -410 3 -11 16 -76 30 -145 93
-467 284 -1092 479 -1571 131 -322 333 -734 469 -957 21 -34 38 -64 38 -67 0
-2 39 -66 88 -142 48 -76 92 -146 97 -155 6 -10 23 -37 40 -60 16 -24 57 -81
89 -128 56 -81 225 -309 236 -320 3 -3 23 -27 45 -55 226 -283 548 -625 814
-865 52 -47 99 -90 105 -95 6 -6 49 -42 96 -80 47 -38 94 -78 105 -88 34 -31
376 -291 450 -342 39 -27 97 -67 130 -91 146 -103 513 -326 735 -448 151 -84
591 -300 730 -359 74 -32 146 -66 158 -76 l24 -17 -41 -85 c-58 -119 -101
-193 -194 -332 -97 -145 -304 -420 -372 -493 -5 -6 -28 -33 -50 -60 -22 -27
-58 -69 -81 -94 -22 -25 -58 -65 -80 -89 -185 -209 -504 -526 -714 -709 -52
-46 -104 -91 -115 -101 -143 -126 -441 -346 -588 -435 -114 -68 -257 -138
-271 -133 -13 5 -39 56 -104 198 -298 650 -616 1194 -981 1672 -58 77 -115
152 -126 166 -28 38 -206 252 -230 277 -11 12 -49 54 -85 95 -235 269 -795
785 -1030 949 -19 13 -40 29 -46 35 -6 5 -22 18 -35 27 -152 111 -203 146
-319 224 -189 127 -425 270 -643 388 -152 83 -654 326 -673 326 -2 0 -23 9
-47 19 -223 102 -765 295 -1012 361 -16 5 -66 18 -110 30 -44 12 -87 23 -95
25 -8 2 -60 14 -115 28 -135 33 -227 54 -325 72 -14 3 -47 9 -75 15 -61 12
-99 18 -145 26 -19 3 -73 11 -120 19 -148 24 -169 27 -300 40 -36 3 -74 7 -85
9 -11 2 -58 7 -105 11 -47 4 -103 8 -125 11 -235 22 -929 22 -1115 -1 -14 -1
-65 -6 -115 -9 -49 -4 -101 -9 -115 -11 -14 -2 -50 -6 -80 -10 -122 -13 -303
-39 -415 -60 -44 -8 -96 -17 -115 -20 -203 -34 -657 -146 -910 -225 -91 -28
-185 -57 -210 -65 -245 -73 -861 -325 -1140 -465 -212 -107 -277 -271 -202
-510 116 -372 361 -939 585 -1360 19 -36 47 -87 62 -115 22 -41 171 -294 218
-369 102 -164 373 -552 469 -671 61 -75 223 -271 228 -275 3 -3 35 -39 70 -80
229 -263 560 -581 860 -826 512 -419 1014 -739 1645 -1048 197 -97 269 -130
440 -204 272 -117 673 -260 940 -334 83 -22 333 -89 355 -93 8 -2 56 -12 105
-24 183 -41 454 -90 590 -106 28 -4 61 -8 75 -10 14 -2 52 -7 85 -10 33 -4 71
-8 85 -10 14 -2 57 -7 95 -10 39 -3 90 -8 115 -11 243 -24 931 -24 1175 1 22
2 72 7 110 10 78 6 109 9 240 25 103 12 134 16 190 25 52 7 176 27 195 30 8 1
35 6 60 10 25 4 54 9 65 12 11 2 45 8 75 14 103 19 203 40 209 43 3 2 22 7 41
10 19 3 44 8 55 10 11 3 65 16 120 29 120 29 276 71 365 99 36 11 74 21 85 24
38 7 411 132 550 184 184 69 249 89 257 81 9 -9 57 -166 75 -246 21 -98 41
-199 48 -243 3 -21 7 -47 9 -57 5 -25 24 -155 31 -215 3 -25 8 -56 10 -70 2
-14 7 -56 10 -95 3 -38 8 -81 10 -95 3 -14 7 -63 10 -110 3 -47 7 -112 10
-145 15 -186 20 -582 10 -750 -11 -194 -37 -489 -50 -575 -2 -14 -7 -47 -10
-75 -9 -68 -43 -294 -50 -325 -3 -14 -10 -52 -15 -85 -15 -82 -75 -312 -95
-357 -8 -21 -21 -38 -28 -38 -7 0 -125 42 -262 94 -507 190 -1030 341 -1390
402 -16 2 -66 11 -110 19 -44 8 -93 17 -110 19 -39 6 -116 18 -135 21 -8 1
-42 6 -75 10 -32 4 -67 8 -77 10 -10 2 -50 7 -90 10 -40 3 -86 8 -103 10 -50
8 -211 19 -430 30 -201 10 -600 5 -790 -10 -33 -2 -98 -7 -145 -10 -47 -4 -96
-8 -110 -11 -14 -2 -54 -6 -90 -10 -36 -3 -74 -8 -85 -10 -11 -2 -47 -7 -80
-10 -33 -4 -63 -8 -66 -10 -3 -1 -28 -6 -55 -9 -27 -3 -76 -11 -109 -17 -33
-6 -71 -12 -85 -14 -29 -3 -103 -17 -160 -29 -40 -9 -122 -25 -155 -31 -16 -3
-48 -10 -70 -16 -22 -5 -49 -11 -60 -13 -76 -10 -554 -140 -779 -211 -138 -44
-391 -132 -431 -149 -16 -7 -56 -23 -89 -34 -250 -91 -722 -313 -1016 -478
-111 -63 -324 -190 -345 -205 -5 -5 -53 -36 -105 -69 -196 -127 -480 -337
-660 -488 -199 -167 -297 -256 -484 -439 -112 -110 -277 -286 -366 -389 -196
-226 -330 -395 -486 -613 -86 -119 -207 -296 -229 -332 -5 -10 -55 -91 -111
-180 -271 -437 -567 -1032 -752 -1513 -47 -120 -62 -195 -63 -297 -1 -253 132
-432 420 -565 229 -105 485 -211 686 -282 66 -24 129 -47 140 -52 70 -29 532
-168 610 -184 11 -2 20 -4 20 -5 0 -1 7 -3 15 -5 8 -2 65 -15 125 -30 123 -29
232 -53 285 -61 19 -3 38 -8 41 -10 3 -1 34 -8 70 -14 35 -5 75 -12 89 -15 48
-9 215 -34 265 -40 28 -4 61 -8 75 -10 14 -2 50 -7 80 -10 30 -3 69 -8 85 -10
29 -3 139 -13 226 -20 133 -10 338 -18 524 -18 204 -1 539 10 580 18 11 2 57
7 101 10 45 3 93 8 105 10 13 2 51 6 84 10 33 4 76 9 95 11 19 2 49 6 65 9 17
2 53 7 80 10 28 4 57 8 65 10 8 2 60 11 115 19 112 17 121 19 260 47 55 12
111 23 125 25 14 3 75 16 135 30 61 14 117 27 125 29 368 82 1058 307 1360
442 25 12 79 35 120 53 684 297 1368 728 1920 1209 41 36 86 75 99 86 36 30
511 504 547 545 437 504 697 857 986 1345 176 295 410 745 493 945 37 91 73
150 90 150 68 0 453 -254 785 -518 80 -64 147 -118 150 -121 3 -3 48 -42 100
-86 154 -130 375 -343 546 -526 349 -374 823 -1020 919 -1251 18 -45 37 -31
-181 -126 -213 -93 -289 -129 -484 -227 -175 -88 -484 -258 -511 -281 -8 -8
-18 -14 -22 -14 -6 0 -137 -81 -267 -165 -158 -103 -572 -403 -600 -435 -3 -3
-52 -44 -110 -92 -550 -453 -1054 -1008 -1481 -1633 -75 -109 -253 -387 -292
-455 -11 -19 -28 -48 -38 -65 -10 -16 -24 -41 -32 -55 -7 -14 -37 -68 -67
-120 -69 -124 -228 -441 -278 -555 -22 -49 -49 -110 -60 -135 -48 -101 -175
-432 -225 -581 -40 -118 -114 -358 -132 -424 -9 -33 -27 -101 -40 -151 -49
-183 -138 -614 -160 -774 -3 -25 -8 -52 -10 -60 -2 -8 -7 -40 -10 -70 -3 -30
-8 -62 -10 -70 -2 -8 -7 -49 -10 -90 -4 -41 -8 -77 -10 -80 -2 -3 -6 -36 -9
-75 -4 -38 -9 -98 -12 -131 -34 -364 -38 -968 -9 -1284 3 -25 7 -79 10 -120 3
-41 8 -86 10 -100 2 -14 7 -56 11 -95 3 -38 8 -78 10 -89 2 -10 6 -44 9 -75 4
-31 8 -63 10 -71 3 -8 11 -60 19 -115 9 -55 17 -109 19 -120 3 -11 8 -38 12
-60 4 -22 9 -50 11 -61 2 -12 13 -66 25 -120 11 -55 23 -110 25 -124 12 -61
86 -348 124 -480 114 -396 305 -905 428 -1140 163 -312 377 -418 715 -355 73
14 397 135 602 225 22 10 69 30 105 45 118 49 509 240 625 305 97 54 231 133
398 234 103 63 354 235 492 339 146 110 456 363 531 433 16 16 55 51 85 78
221 200 520 511 746 776 264 310 596 765 778 1067 44 73 159 270 174 298 9 17
18 32 21 35 30 30 280 553 375 785 20 50 47 116 61 148 13 31 21 57 18 57 -2
0 2 12 10 28 32 62 180 526 211 662 2 8 17 69 34 135 16 66 32 131 35 145 3
14 7 34 10 45 6 25 43 218 51 264 3 19 7 37 9 40 2 3 7 33 11 66 3 32 8 62 10
65 1 3 6 30 9 61 4 31 8 65 10 75 2 11 7 46 10 79 4 33 9 74 11 90 7 53 24
218 30 300 26 344 26 1072 0 1315 -2 19 -7 73 -10 120 -4 47 -8 92 -10 100 -2
8 -6 53 -10 100 -4 47 -8 87 -10 90 -2 3 -6 36 -10 75 -3 38 -8 72 -10 75 -1
3 -6 34 -9 69 -4 35 -8 67 -10 70 -2 3 -6 29 -10 56 -7 60 -10 75 -42 234 -30
148 -132 545 -199 776 -13 43 -33 116 -100 360 -8 28 -32 118 -55 200 -59 213
-59 191 2 209 230 65 599 127 966 162 284 26 600 33 932 20 96 -4 186 -9 200
-11 14 -1 70 -6 124 -10 55 -4 107 -8 117 -10 9 -2 48 -6 86 -9 37 -4 95 -11
128 -16 33 -5 76 -11 95 -14 52 -6 229 -36 275 -46 22 -5 57 -11 78 -14 21 -3
91 -18 155 -32 106 -24 141 -36 180 -62 10 -7 -1 -48 -53 -188 -112 -301 -241
-709 -290 -919 -2 -5 -10 -37 -18 -70 -16 -59 -55 -236 -64 -285 -2 -14 -8
-41 -13 -60 -5 -19 -12 -53 -15 -75 -3 -22 -12 -74 -20 -115 -8 -41 -16 -91
-19 -110 -3 -19 -12 -82 -20 -140 -14 -100 -27 -202 -31 -245 -1 -11 -5 -60
-9 -110 -4 -49 -9 -101 -12 -115 -22 -143 -22 -897 1 -1115 2 -22 6 -71 10
-110 8 -94 14 -148 32 -290 25 -201 24 -195 58 -395 9 -52 18 -108 21 -125 2
-16 7 -37 9 -45 2 -8 7 -30 10 -48 15 -86 73 -338 120 -517 112 -429 259 -862
422 -1245 102 -239 364 -769 386 -778 4 -2 7 -7 7 -12 0 -16 183 -314 291
-476 94 -140 201 -288 330 -455 84 -109 249 -302 374 -439 69 -75 378 -384
446 -445 77 -70 253 -222 319 -275 30 -25 57 -47 60 -50 3 -4 23 -19 45 -35
22 -17 42 -32 45 -35 21 -23 352 -264 510 -371 50 -33 195 -127 253 -162 38
-23 80 -50 95 -59 15 -9 38 -23 52 -31 14 -7 105 -59 203 -115 97 -55 177 -99
177 -96 0 2 19 -8 43 -23 119 -75 736 -357 1002 -458 380 -144 653 -45 836
302 140 264 407 1002 504 1393 16 63 57 236 60 249 2 9 13 59 24 111 11 52 23
107 25 123 6 34 24 134 31 167 3 13 7 42 10 65 4 22 12 81 20 130 8 50 16 113
20 140 3 28 7 61 10 75 2 14 7 61 10 105 3 44 8 91 10 105 4 27 15 176 21 300
5 106 5 617 0 725 -7 135 -26 390 -32 418 -2 10 -6 48 -9 85 -3 37 -8 78 -10
92 -2 14 -9 59 -14 100 -16 113 -52 329 -66 400 -36 181 -50 247 -80 375 -20
83 -38 158 -40 168 -2 10 -7 27 -10 37 -3 10 -8 27 -10 37 -24 112 -181 629
-215 708 -5 11 -12 31 -16 45 -12 46 -136 364 -196 503 -99 232 -248 538 -352
721 -31 54 -56 100 -56 102 0 4 -102 174 -134 224 -13 19 -58 89 -101 155 -81
126 -186 275 -270 386 -27 36 -61 80 -75 99 -236 314 -643 744 -985 1040 -61
52 -112 97 -115 100 -3 3 -30 25 -60 50 -30 25 -60 50 -66 55 -6 6 -47 37 -90
70 -43 33 -81 62 -84 65 -3 3 -39 30 -80 60 -41 30 -77 57 -80 60 -30 32 -540
364 -698 455 -314 181 -655 355 -942 482 -80 35 -153 73 -163 85 -17 20 -16
23 19 87 135 246 520 785 734 1026 374 421 707 733 1085 1017 66 49 129 97
140 106 11 9 103 72 205 140 194 130 314 197 331 186 10 -6 60 -106 107 -216
128 -297 359 -733 545 -1028 71 -113 189 -293 197 -300 3 -3 20 -27 39 -55 44
-64 286 -388 303 -406 7 -8 23 -26 34 -41 105 -135 331 -384 534 -588 855
-856 1964 -1550 3093 -1936 151 -51 446 -142 532 -163 202 -50 316 -77 500
-117 11 -3 35 -7 52 -9 18 -3 52 -9 75 -14 24 -5 61 -12 83 -15 23 -4 52 -9
65 -11 14 -3 45 -8 70 -11 25 -3 47 -7 50 -9 3 -2 34 -6 70 -10 36 -3 72 -8
80 -10 15 -5 47 -9 160 -20 36 -4 73 -9 82 -10 10 -2 56 -7 104 -10 47 -3 100
-8 118 -10 213 -25 917 -25 1176 0 19 2 76 6 125 10 50 3 97 8 105 10 8 2 46
6 83 10 37 3 76 8 85 10 9 1 46 6 82 10 36 3 73 9 83 12 11 3 29 6 40 8 101
12 157 22 327 55 490 97 947 230 1385 403 341 135 578 245 686 318 113 76 198
199 224 323 16 78 12 238 -9 294 -8 23 -15 43 -14 45 3 6 -52 161 -113 313
-58 147 -99 244 -176 414 -145 323 -427 818 -651 1145 -136 198 -324 448 -445
592 -49 58 -224 261 -262 303 -59 66 -440 447 -510 511 -34 29 -83 74 -110 99
-59 54 -266 227 -345 287 -246 190 -291 223 -520 376 -178 119 -293 191 -435
272 -55 32 -116 67 -135 78 -59 34 -471 241 -550 276 -276 124 -582 243 -843
328 -92 30 -175 56 -185 58 -9 3 -48 14 -87 25 -71 21 -248 69 -275 75 -8 2
-53 12 -100 24 -258 60 -572 118 -805 146 -27 4 -60 8 -73 10 -13 2 -53 7 -90
10 -37 4 -78 8 -91 10 -14 3 -68 7 -120 11 -53 3 -112 8 -131 10 -210 22 -900
22 -1120 -1 -19 -2 -73 -6 -119 -10 -46 -4 -98 -9 -115 -11 -17 -2 -53 -6 -81
-9 -27 -3 -61 -8 -75 -10 -14 -2 -50 -7 -80 -10 -30 -3 -62 -8 -70 -10 -8 -2
-35 -7 -60 -10 -70 -9 -205 -34 -310 -56 -52 -12 -108 -23 -125 -26 -16 -3
-69 -15 -118 -28 -48 -13 -91 -24 -95 -25 -13 -1 -85 -21 -212 -56 -145 -41
-186 -53 -580 -173 -364 -111 -498 -149 -530 -153 -24 -3 -26 2 -52 107 -30
119 -95 431 -104 498 -10 75 -11 81 -18 127 -12 75 -15 93 -21 150 -3 30 -8
66 -10 80 -2 14 -7 63 -10 110 -4 47 -9 93 -11 103 -23 122 -23 1000 1 1148 2
13 6 60 10 103 4 43 8 86 10 95 1 9 6 43 9 76 4 33 9 71 11 85 2 14 11 70 20
125 8 55 17 111 20 125 3 14 7 36 10 50 34 186 74 346 112 448 20 53 0 56 262
-44 278 -107 670 -236 848 -279 10 -3 43 -11 73 -19 83 -22 174 -45 201 -49
13 -3 42 -9 64 -15 45 -12 271 -58 325 -67 19 -3 42 -8 50 -10 8 -2 37 -6 63
-10 26 -3 70 -10 97 -15 27 -5 74 -12 105 -15 31 -4 64 -8 73 -10 10 -2 45 -6
77 -10 33 -4 70 -8 83 -10 13 -2 65 -7 115 -11 51 -3 101 -8 112 -10 124 -24
952 -23 1140 1 17 2 62 7 100 10 39 4 86 8 105 10 19 2 58 7 85 10 28 3 61 7
75 9 14 3 48 7 75 11 84 10 138 19 330 51 17 3 77 14 135 26 58 11 115 22 128
24 156 30 473 107 686 169 137 39 438 134 486 152 22 8 143 53 155 57 6 2 17
6 25 9 8 4 58 22 110 42 52 19 104 39 115 45 11 5 83 36 160 69 268 114 558
257 738 363 26 15 50 28 52 28 8 0 317 190 410 253 455 304 774 566 1145 937
238 237 330 339 558 615 92 111 283 368 373 500 29 44 57 85 62 90 48 59 320
508 423 700 62 114 273 540 319 645 26 58 53 119 60 135 15 33 134 322 153
370 26 68 54 202 57 271 8 212 -75 362 -270 493 -204 137 -860 397 -1365 541
-96 28 -188 54 -205 59 -31 10 -194 50 -230 57 -11 2 -29 6 -40 8 -179 41
-463 94 -595 111 -25 3 -56 8 -70 10 -14 2 -47 7 -75 10 -27 3 -68 8 -90 10
-78 10 -111 13 -205 20 -52 4 -106 8 -119 11 -140 21 -896 21 -1086 -1 -16 -2
-64 -6 -105 -9 -41 -4 -93 -9 -115 -11 -22 -3 -58 -7 -80 -9 -42 -4 -65 -7
-240 -31 -96 -14 -395 -65 -464 -79 -14 -3 -68 -15 -122 -26 -53 -11 -103 -22
-110 -25 -8 -2 -25 -6 -39 -9 -14 -2 -72 -16 -130 -31 -58 -14 -113 -28 -122
-30 -41 -9 -218 -57 -273 -75 -33 -10 -121 -37 -195 -60 -871 -272 -1725 -716
-2425 -1259 -122 -95 -285 -228 -300 -245 -5 -6 -26 -24 -45 -40 -108 -88
-425 -395 -565 -547 -217 -236 -357 -405 -548 -659 -64 -85 -125 -167 -136
-181 -33 -43 -301 -447 -301 -454 0 -3 -11 -21 -25 -39 -14 -18 -25 -36 -25
-40 0 -3 -12 -25 -27 -49 -15 -23 -33 -51 -39 -62 -6 -11 -39 -68 -72 -127
-126 -220 -261 -484 -407 -798 -77 -164 -74 -161 -133 -130 -38 20 -201 125
-287 184 -86 60 -245 175 -265 193 -14 11 -61 50 -105 85 -76 60 -114 91 -139
113 -6 6 -67 59 -136 120 -241 211 -550 520 -737 734 -21 25 -54 63 -73 85
-20 23 -67 79 -105 126 -38 47 -72 87 -75 90 -14 12 -232 303 -277 370 -86
128 -183 281 -183 289 0 5 -6 14 -14 20 -8 7 -29 42 -46 78 -31 64 -32 67 -14
80 19 14 244 126 459 228 603 287 902 457 1290 734 106 75 339 252 406 308
159 134 274 234 352 307 474 443 851 885 1195 1401 453 679 790 1392 1022
2159 45 152 116 415 126 476 3 14 9 39 14 55 9 29 74 354 86 430 3 21 7 45 9
54 1 9 6 36 10 61 3 25 9 59 12 75 3 17 6 41 8 55 2 26 14 115 20 160 2 14 6
54 10 90 4 36 8 76 10 90 4 22 7 56 20 230 25 315 25 900 0 1160 -2 19 -6 75
-10 123 -4 49 -8 98 -10 110 -2 12 -6 47 -9 77 -7 71 -41 319 -50 365 -2 11
-7 40 -11 65 -4 25 -9 52 -10 60 -9 48 -36 189 -40 210 -3 14 -7 36 -10 50
-71 388 -299 1110 -472 1500 -106 239 -159 325 -255 420 -141 140 -347 187
-578 132 -75 -18 -361 -121 -475 -172 -22 -10 -89 -39 -150 -65 -121 -52 -510
-242 -620 -303 -38 -22 -97 -54 -130 -72 -133 -74 -534 -323 -578 -360 -7 -6
-79 -58 -162 -117 -82 -59 -152 -109 -155 -113 -3 -3 -34 -28 -70 -55 -36 -28
-67 -52 -70 -55 -3 -3 -41 -34 -85 -70 -44 -36 -96 -79 -115 -96 -19 -17 -80
-70 -135 -119 -55 -48 -194 -183 -310 -299 -214 -215 -248 -250 -370 -391 -39
-44 -72 -82 -75 -85 -5 -4 -102 -123 -150 -183 -8 -10 -22 -27 -31 -37 -8 -10
-24 -31 -35 -46 -10 -15 -31 -41 -45 -58 -86 -104 -397 -549 -455 -651 -6 -11
-50 -84 -98 -163 -47 -78 -86 -144 -86 -146 0 -2 -23 -43 -51 -92 -52 -90
-244 -474 -288 -574 -13 -30 -34 -79 -47 -108 -13 -29 -24 -55 -24 -57 0 -3
-9 -24 -19 -48 -67 -146 -241 -640 -286 -812 -5 -16 -9 -34 -11 -40 -15 -51
-74 -276 -77 -295 -3 -14 -12 -52 -20 -85 -37 -142 -112 -546 -132 -705 -4
-30 -8 -62 -10 -70 -6 -36 -30 -246 -41 -360 -34 -358 -39 -978 -9 -1310 2
-30 7 -89 10 -130 3 -42 7 -84 9 -95 2 -11 7 -54 11 -95 4 -41 9 -82 10 -90 5
-28 15 -95 20 -140 3 -25 8 -56 10 -70 8 -43 16 -94 20 -120 7 -52 47 -258 67
-340 22 -94 26 -113 33 -150 3 -14 23 -92 45 -175 22 -82 43 -158 45 -168 19
-82 166 -531 254 -777 26 -73 28 -88 17 -105 -17 -27 -81 -47 -266 -85 -181
-37 -172 -36 -230 -45 -25 -4 -54 -9 -65 -11 -10 -2 -35 -6 -55 -9 -20 -3 -45
-7 -55 -9 -39 -7 -144 -21 -245 -31 -36 -4 -72 -9 -80 -10 -9 -2 -57 -6 -109
-10 -51 -4 -105 -8 -119 -10 -180 -22 -750 -21 -989 0 -134 12 -167 15 -220
21 -104 10 -255 30 -318 40 -16 3 -43 7 -60 10 -41 6 -56 9 -160 28 -131 23
-142 26 -220 42 -38 9 -78 17 -88 19 -58 12 -127 43 -127 56 0 6 25 78 56 162
202 550 323 975 414 1457 11 58 22 122 26 144 3 21 7 46 9 55 1 9 6 41 10 71
4 30 9 64 11 74 6 30 23 165 29 229 4 32 8 66 10 75 3 18 16 172 20 237 1 22
6 94 10 160 9 159 10 479 1 685 -8 187 -10 204 -31 420 -9 83 -23 201 -30 250
-2 14 -9 61 -15 105 -6 44 -13 91 -15 105 -3 14 -7 43 -10 65 -4 22 -22 117
-40 210 -44 222 -43 213 -56 265 -6 25 -12 54 -15 65 -2 11 -16 65 -30 120
-14 55 -27 105 -29 110 -7 32 -19 78 -37 135 -11 36 -21 72 -23 80 -34 147
-260 787 -340 965 -8 17 -25 57 -38 90 -54 131 -248 531 -320 660 -122 219
-266 457 -363 598 -30 43 -54 83 -54 88 0 5 -4 9 -8 9 -4 0 -16 15 -27 33 -60
101 -421 557 -560 706 -236 255 -402 420 -594 591 -46 41 -89 80 -95 85 -99
90 -631 500 -666 513 -8 3 -17 9 -20 13 -4 6 -290 193 -345 226 -11 6 -56 34
-100 61 -44 27 -87 52 -95 56 -8 4 -24 12 -35 19 -138 84 -550 297 -745 385
-52 24 -113 52 -135 62 -251 113 -553 229 -657 253 -81 18 -192 19 -273 2z
m13504 -967 c16 -26 71 -135 100 -201 57 -125 214 -605 236 -716 2 -9 8 -36
15 -61 7 -25 14 -56 17 -70 2 -14 11 -52 20 -85 8 -33 17 -71 19 -85 3 -14 13
-65 24 -115 10 -49 21 -106 24 -125 3 -19 8 -47 11 -62 3 -16 7 -40 10 -55 15
-80 52 -355 59 -438 3 -33 8 -85 11 -115 5 -53 12 -171 20 -310 4 -81 4 -632
0 -720 -7 -139 -23 -337 -36 -450 -13 -117 -17 -147 -34 -265 -1 -11 -6 -42
-10 -70 -56 -400 -242 -1080 -390 -1430 -198 -470 -366 -807 -552 -1110 -111
-179 -304 -465 -414 -611 -62 -82 -115 -151 -118 -154 -4 -3 -22 -25 -41 -50
-19 -25 -37 -47 -40 -50 -3 -3 -30 -34 -60 -70 -30 -35 -66 -78 -80 -94 -156
-184 -533 -555 -756 -746 -247 -212 -594 -464 -829 -603 -22 -13 -92 -55 -155
-94 -63 -38 -122 -73 -130 -77 -8 -4 -24 -12 -35 -19 -29 -17 -229 -125 -305
-164 -57 -29 -195 -94 -297 -139 -63 -28 -165 -64 -234 -84 l-69 -19 -23 37
c-72 117 -183 415 -268 722 -22 80 -46 168 -55 195 -16 56 -102 431 -110 484
-3 18 -8 43 -10 55 -21 96 -46 257 -59 374 -3 26 -8 63 -10 82 -8 62 -22 218
-31 335 -20 294 -20 826 1 1015 2 19 6 71 10 115 7 98 10 121 35 310 27 202
29 213 40 270 5 28 12 64 15 80 2 17 14 75 25 130 12 55 24 111 26 125 25 125
125 488 192 695 37 113 132 376 152 420 5 11 27 63 48 115 106 255 345 737
422 850 10 14 26 41 37 60 71 129 420 643 462 680 4 3 19 23 36 45 161 220
522 611 800 868 115 106 363 318 436 372 15 11 60 45 100 76 234 177 430 308
719 480 88 52 310 170 455 240 150 74 538 247 555 249 3 0 11 -10 19 -22z
m-13119 -12 c182 -66 319 -126 595 -262 249 -123 326 -164 528 -285 139 -84
445 -283 457 -298 3 -3 46 -35 95 -71 50 -36 97 -70 105 -77 8 -7 58 -46 110
-88 52 -42 104 -84 115 -94 11 -9 61 -53 110 -96 244 -214 505 -480 701 -715
143 -172 210 -258 320 -410 95 -131 257 -371 290 -429 27 -47 36 -62 60 -96
12 -17 23 -34 25 -40 2 -5 24 -45 49 -89 98 -170 123 -217 209 -386 216 -425
377 -837 506 -1296 55 -193 124 -494 150 -654 3 -19 10 -57 15 -85 5 -27 12
-70 15 -95 3 -25 8 -56 10 -70 2 -14 7 -45 10 -70 4 -25 8 -56 10 -70 2 -14 6
-52 10 -85 3 -33 8 -78 10 -100 3 -22 7 -69 10 -104 2 -35 7 -98 10 -140 20
-255 20 -715 0 -956 -3 -38 -7 -97 -10 -130 -4 -59 -11 -125 -20 -195 -2 -19
-7 -59 -11 -89 -3 -30 -7 -62 -9 -71 -2 -9 -6 -41 -10 -71 -4 -30 -10 -72 -15
-94 -5 -22 -11 -60 -15 -85 -3 -25 -8 -52 -11 -61 -3 -10 -7 -30 -9 -45 -26
-174 -157 -664 -244 -914 -90 -259 -191 -508 -212 -521 -26 -16 -91 5 -284 88
-444 191 -824 395 -1200 646 -126 84 -362 254 -431 310 -10 9 -62 51 -114 93
-281 229 -575 515 -826 804 -171 197 -313 380 -476 614 -31 44 -61 86 -67 93
-6 7 -11 15 -11 19 0 4 -11 21 -23 38 -26 33 -202 319 -241 389 -106 191 -134
243 -190 355 -312 618 -527 1272 -655 1987 -33 186 -33 186 -55 360 -21 168
-25 201 -31 278 -4 37 -8 81 -10 98 -23 183 -23 861 0 1049 1 14 6 66 9 116 4
49 8 100 11 111 2 12 6 49 10 82 3 33 7 68 9 78 3 17 17 110 21 143 3 22 27
173 30 190 34 170 68 332 75 355 5 17 11 41 14 55 3 21 19 81 56 215 60 218
193 593 270 760 58 127 62 135 74 135 6 0 40 -11 76 -24z m19950 -8630 c25 -2
83 -7 130 -11 47 -3 96 -8 110 -10 14 -2 54 -7 90 -10 77 -8 124 -14 159 -20
14 -2 46 -7 71 -10 38 -5 229 -37 295 -50 240 -44 599 -137 875 -227 126 -41
447 -157 508 -184 17 -8 49 -21 70 -30 30 -13 114 -52 130 -61 12 -6 -86 -236
-198 -468 -35 -72 -64 -132 -64 -135 -3 -11 -153 -292 -209 -390 -153 -268
-360 -588 -506 -781 -36 -48 -75 -100 -85 -114 -11 -14 -27 -34 -35 -45 -9
-10 -29 -35 -46 -56 -220 -281 -558 -635 -845 -884 -82 -71 -185 -157 -234
-195 -22 -16 -51 -39 -65 -51 -111 -90 -510 -364 -530 -364 -5 0 -11 -3 -13
-7 -3 -9 -146 -96 -235 -144 -32 -18 -87 -49 -123 -69 -87 -48 -352 -178 -470
-230 -224 -98 -198 -88 -357 -149 -439 -169 -1085 -350 -1493 -416 -14 -2 -79
-13 -145 -24 -114 -19 -162 -26 -247 -36 -224 -28 -378 -42 -553 -50 -112 -6
-463 -6 -570 -1 -113 6 -287 18 -306 21 -9 2 -52 6 -95 10 -43 3 -104 10 -134
15 -30 5 -77 12 -105 15 -27 3 -57 8 -65 10 -8 2 -37 6 -65 10 -43 5 -285 51
-400 76 -74 15 -329 80 -400 100 -386 114 -884 294 -953 346 -39 29 -38 40 13
160 138 324 365 760 573 1098 185 302 508 742 697 951 6 6 44 49 84 95 93 104
408 419 516 515 663 590 1435 1042 2310 1352 171 61 503 165 550 173 6 1 20 5
33 10 12 5 33 11 45 13 12 3 65 16 117 30 52 14 106 27 120 30 14 3 57 12 95
21 147 33 201 45 230 50 17 2 41 7 55 10 29 5 63 11 145 25 33 5 69 12 81 14
12 2 45 7 74 11 29 4 60 8 69 10 9 1 43 6 76 10 32 4 66 8 75 10 8 1 49 6 90
9 41 4 89 8 105 11 17 2 82 6 145 10 63 3 116 8 118 9 4 5 643 -2 692 -8z
m-26005 -10 c33 -3 98 -8 145 -11 47 -3 96 -8 110 -10 14 -2 55 -6 92 -10 37
-3 75 -7 85 -9 10 -2 47 -7 83 -11 36 -4 74 -9 85 -11 10 -2 37 -6 60 -9 54
-8 90 -14 155 -25 30 -5 73 -12 95 -16 22 -3 42 -7 45 -9 3 -2 25 -6 50 -10
25 -4 47 -8 51 -10 3 -2 21 -7 40 -10 19 -3 62 -12 95 -20 34 -8 73 -16 85
-19 13 -3 33 -7 44 -10 11 -3 49 -12 84 -21 565 -138 1251 -416 1790 -727 25
-15 55 -31 66 -37 73 -39 321 -198 480 -309 588 -411 1060 -852 1509 -1412 45
-56 200 -266 236 -320 24 -36 48 -69 52 -75 30 -37 242 -376 258 -414 6 -13
19 -35 29 -50 42 -60 234 -439 305 -601 21 -47 45 -100 53 -119 38 -84 111
-286 106 -294 -5 -8 -208 -107 -218 -107 -3 0 -28 -11 -57 -24 -114 -51 -452
-170 -639 -225 -348 -101 -827 -198 -1119 -226 -36 -3 -76 -8 -90 -10 -14 -2
-65 -7 -115 -11 -49 -3 -101 -8 -115 -9 -45 -6 -383 -18 -490 -18 -129 0 -456
12 -490 17 -14 3 -63 7 -110 11 -47 4 -98 8 -115 10 -16 2 -59 7 -95 11 -36 3
-73 8 -84 10 -10 2 -43 6 -74 10 -30 3 -60 7 -66 9 -6 1 -33 5 -61 9 -45 7
-189 32 -240 42 -11 2 -54 11 -95 19 -41 8 -85 17 -97 20 -13 3 -31 7 -40 9
-10 2 -49 12 -88 21 -38 9 -78 18 -87 20 -144 30 -490 135 -758 230 -286 101
-762 317 -1020 463 -25 14 -74 42 -110 62 -117 66 -272 163 -410 255 -132 89
-350 243 -360 255 -3 3 -36 30 -75 60 -247 191 -519 438 -755 686 -129 137
-160 171 -373 424 -33 38 -258 339 -297 395 -115 168 -340 525 -340 539 0 2
-22 42 -49 88 -118 205 -315 623 -382 808 l-37 106 76 41 c232 123 823 322
1242 417 134 30 401 81 480 91 30 4 64 9 75 11 11 2 58 9 105 14 47 6 99 12
115 15 17 2 64 7 105 10 41 4 95 8 120 10 25 3 104 7 175 11 72 4 131 8 133 9
6 5 577 -3 637 -9z m10580 -1930 c39 -8 79 -16 90 -19 31 -9 455 -95 500 -102
22 -3 51 -8 65 -10 14 -2 57 -9 95 -15 39 -6 81 -13 95 -15 14 -2 88 -11 165
-20 77 -9 151 -18 165 -20 14 -2 70 -7 125 -11 55 -4 114 -8 130 -9 354 -29
914 -24 1280 9 39 4 93 9 120 12 28 2 60 6 73 9 13 2 51 7 85 10 35 3 71 7 82
9 18 3 68 10 155 22 46 6 141 22 265 44 89 16 110 20 135 26 14 3 36 8 50 11
22 4 237 50 265 57 163 40 167 38 226 -59 27 -44 75 -122 107 -173 31 -51 62
-101 67 -111 6 -9 60 -90 120 -179 61 -90 115 -170 120 -179 6 -9 15 -24 22
-32 7 -9 62 -83 124 -166 61 -82 114 -152 118 -155 3 -3 28 -34 56 -70 27 -36
59 -76 71 -90 12 -14 53 -61 90 -105 176 -205 498 -540 665 -690 122 -110 197
-176 269 -235 41 -34 86 -72 100 -84 14 -11 43 -34 65 -51 22 -16 45 -34 50
-41 13 -15 338 -254 400 -294 13 -8 94 -63 181 -121 88 -58 209 -136 269 -174
61 -38 115 -73 122 -79 9 -9 3 -53 -27 -195 -22 -101 -42 -193 -44 -205 -15
-72 -46 -236 -51 -261 -2 -16 -7 -41 -10 -55 -3 -14 -7 -43 -10 -65 -3 -22 -8
-56 -11 -75 -4 -19 -8 -43 -10 -53 -3 -17 -30 -214 -40 -292 -2 -22 -7 -56 -9
-75 -3 -19 -7 -66 -10 -105 -3 -38 -8 -81 -10 -95 -3 -22 -9 -108 -20 -325
-12 -224 -1 -764 20 -992 12 -123 16 -170 20 -198 2 -16 7 -57 10 -90 4 -33 8
-71 10 -85 2 -14 11 -74 20 -135 9 -60 18 -121 20 -135 3 -14 12 -68 20 -120
18 -109 40 -219 96 -479 21 -101 41 -193 44 -205 2 -11 6 -31 9 -42 7 -36 -18
-59 -147 -135 -194 -114 -485 -311 -702 -474 -110 -83 -211 -160 -225 -172
-14 -12 -70 -59 -125 -105 -98 -81 -114 -95 -218 -188 -360 -320 -736 -733
-1047 -1150 -51 -69 -105 -141 -119 -160 -68 -90 -271 -405 -383 -591 l-123
-206 -115 29 c-117 29 -406 92 -470 103 -19 3 -42 8 -50 10 -8 2 -33 7 -55 10
-23 3 -52 7 -65 10 -57 11 -138 24 -180 30 -46 6 -113 15 -140 20 -8 1 -46 6
-83 10 -37 3 -76 8 -85 10 -9 1 -57 6 -106 10 -49 4 -96 8 -105 10 -9 1 -74 6
-146 10 -71 4 -148 9 -170 11 -45 4 -654 4 -730 0 -122 -7 -280 -18 -295 -21
-9 -2 -57 -6 -107 -9 -50 -4 -99 -8 -109 -10 -11 -2 -46 -7 -79 -10 -90 -10
-303 -41 -357 -52 -15 -3 -42 -7 -60 -9 -18 -3 -55 -9 -83 -15 -27 -5 -66 -12
-85 -15 -19 -3 -42 -8 -50 -10 -8 -2 -30 -7 -48 -10 -19 -3 -71 -14 -116 -25
-45 -10 -93 -21 -106 -24 -14 -3 -65 -15 -115 -27 l-89 -22 -36 41 c-19 22
-52 73 -74 113 -21 41 -44 81 -50 89 -7 8 -29 44 -51 80 -53 90 -266 410 -312
469 -7 9 -47 63 -89 121 -147 199 -324 414 -524 635 -63 70 -437 444 -495 495
-22 19 -78 69 -125 110 -47 41 -87 78 -90 81 -12 13 -274 223 -370 295 -208
159 -372 270 -772 524 -66 42 -118 82 -118 90 0 8 5 31 11 50 6 19 13 49 15
65 3 17 12 53 19 80 8 28 16 61 19 75 2 14 12 59 21 100 9 41 19 86 21 100 3
14 7 32 9 40 2 8 7 29 10 45 2 17 7 41 10 55 18 87 69 392 80 485 4 28 8 61
11 75 2 14 6 54 10 90 3 36 7 75 9 87 2 12 6 61 10 110 4 48 8 101 10 116 24
194 24 1018 1 1157 -2 14 -7 68 -11 120 -3 52 -8 109 -11 125 -2 17 -6 48 -8
70 -5 41 -15 121 -21 165 -2 14 -7 45 -10 70 -7 55 -53 336 -60 370 -3 14 -12
63 -21 110 -15 77 -54 250 -103 452 l-18 77 26 24 c14 14 78 55 141 93 276
162 614 399 900 628 69 55 130 105 136 111 6 5 37 33 70 60 176 150 225 196
449 420 162 162 284 290 367 387 162 190 245 292 377 469 124 165 347 489 417
606 184 310 199 333 219 333 11 -1 52 -7 90 -14z m-6830 -7250 c88 -4 174 -9
190 -11 17 -2 64 -6 105 -9 41 -4 95 -9 120 -12 69 -8 202 -25 230 -29 246
-39 223 -35 330 -55 30 -6 68 -13 85 -16 16 -3 68 -14 115 -25 47 -12 94 -23
105 -25 24 -5 133 -32 155 -39 8 -2 49 -13 90 -24 276 -72 796 -254 953 -332
42 -22 77 -41 77 -44 0 -12 -173 -382 -251 -535 -122 -240 -175 -337 -296
-539 -132 -220 -223 -359 -381 -580 -189 -267 -472 -599 -734 -860 -136 -137
-258 -248 -403 -371 -55 -47 -102 -87 -105 -90 -5 -6 -24 -20 -230 -176 -224
-169 -539 -368 -815 -516 -129 -69 -477 -238 -489 -238 -3 0 -33 -13 -68 -29
-267 -121 -948 -347 -1227 -406 -9 -2 -63 -15 -121 -29 -58 -14 -121 -28 -140
-31 -19 -3 -51 -10 -70 -15 -19 -5 -48 -11 -65 -14 -42 -7 -86 -15 -115 -21
-58 -11 -77 -15 -115 -20 -22 -3 -65 -10 -95 -15 -30 -5 -77 -12 -105 -15 -27
-3 -63 -8 -80 -10 -63 -8 -123 -15 -195 -21 -41 -3 -88 -7 -105 -9 -208 -25
-861 -25 -1090 -1 -22 3 -67 7 -100 10 -99 10 -145 16 -260 32 -186 26 -288
44 -456 80 -63 13 -124 26 -135 28 -15 4 -169 43 -274 71 -68 18 -302 93 -420
135 -80 28 -149 53 -155 54 -5 2 -21 7 -35 13 -14 5 -74 27 -135 48 -60 21
-150 55 -200 75 -84 33 -90 38 -93 67 -6 60 269 633 464 970 187 321 462 723
662 966 37 45 76 93 87 106 186 227 511 555 775 783 247 212 654 507 905 654
203 119 303 174 470 258 198 100 245 122 420 198 50 21 99 43 110 48 106 51
560 208 835 289 252 74 697 177 855 196 28 4 57 8 65 10 8 2 38 7 65 11 28 3
58 8 67 9 9 2 48 7 85 10 37 4 75 9 84 10 8 2 55 6 105 10 49 4 99 8 112 10
12 2 89 7 170 11 81 3 148 7 149 8 5 4 381 -2 518 -8z m18410 -10 c146 -12
286 -25 335 -31 19 -2 60 -7 90 -10 30 -4 66 -8 80 -10 14 -2 45 -7 70 -10 25
-3 70 -10 100 -15 30 -5 73 -12 95 -16 22 -3 74 -12 115 -20 41 -9 89 -18 105
-20 23 -4 239 -54 345 -79 64 -16 218 -57 266 -71 33 -10 61 -19 64 -19 3 -1
12 -4 20 -7 8 -3 94 -31 190 -63 169 -55 492 -178 615 -234 33 -15 89 -41 125
-56 83 -36 428 -212 498 -254 29 -17 55 -31 57 -31 11 0 280 -166 430 -265
186 -124 365 -254 520 -379 861 -695 1528 -1553 1971 -2538 79 -175 171 -416
162 -422 -28 -19 -379 -165 -533 -221 -214 -78 -543 -178 -653 -200 -9 -1 -37
-8 -62 -15 -25 -7 -56 -14 -70 -17 -14 -2 -77 -15 -140 -28 -63 -13 -131 -27
-150 -30 -39 -6 -75 -13 -117 -20 -72 -11 -163 -24 -213 -30 -30 -3 -66 -8
-80 -10 -23 -4 -59 -8 -175 -19 -39 -4 -195 -15 -325 -22 -77 -4 -549 -4 -635
0 -67 4 -231 16 -285 21 -19 2 -66 7 -105 10 -38 4 -81 8 -95 10 -14 2 -52 7
-85 11 -33 3 -67 7 -75 9 -31 5 -96 15 -130 20 -106 13 -512 94 -650 130 -8 2
-58 15 -110 30 -52 14 -103 28 -113 30 -43 10 -206 61 -372 117 -519 174
-1075 438 -1535 728 -140 88 -284 183 -290 190 -3 4 -36 28 -75 55 -64 44
-242 177 -290 217 -11 9 -67 55 -125 103 -297 245 -622 570 -890 890 -269 322
-568 763 -753 1115 -79 149 -237 473 -237 486 0 2 -10 26 -21 52 -40 89 -48
108 -88 209 l-39 102 20 26 c11 14 24 25 29 25 5 0 28 9 52 19 89 41 276 117
387 158 190 69 513 171 600 188 8 2 62 15 120 30 58 15 116 29 130 31 14 2 36
7 50 10 14 3 34 8 45 10 45 9 295 53 365 64 41 6 85 13 96 15 12 2 48 7 80 10
33 4 67 9 77 11 9 1 54 6 100 9 45 4 93 8 106 10 13 3 83 7 155 11 72 3 133 8
135 10 5 5 637 -4 716 -10z m-12143 -4413 c44 -47 224 -517 312 -813 26 -90
75 -268 81 -298 2 -9 13 -60 25 -112 12 -52 23 -102 25 -110 4 -24 18 -95 20
-100 0 -3 5 -27 10 -55 4 -27 9 -54 11 -60 1 -5 5 -28 8 -50 7 -46 19 -118 21
-125 1 -3 5 -34 9 -70 5 -36 10 -74 12 -85 2 -11 6 -42 9 -70 6 -68 16 -172
21 -220 31 -325 22 -948 -21 -1325 -15 -133 -19 -162 -30 -240 -4 -25 -9 -58
-11 -75 -2 -16 -6 -41 -9 -55 -2 -14 -7 -45 -10 -70 -8 -55 -49 -264 -76 -385
-12 -49 -22 -99 -25 -110 -28 -146 -220 -770 -260 -847 -8 -15 -15 -31 -15
-35 -1 -5 -5 -18 -10 -31 -5 -13 -9 -25 -9 -27 0 -24 -183 -434 -284 -635
-292 -584 -696 -1178 -1107 -1626 -128 -139 -400 -406 -524 -514 -66 -58 -122
-107 -125 -110 -14 -15 -211 -169 -325 -254 -123 -92 -497 -346 -510 -346 -4
0 -25 -13 -48 -28 -103 -71 -470 -264 -682 -359 -135 -61 -344 -146 -448 -182
l-85 -29 -50 106 c-80 170 -190 477 -271 759 -38 129 -108 407 -117 463 -2 14
-7 36 -10 50 -3 14 -8 36 -10 50 -3 14 -13 72 -24 130 -10 58 -21 126 -25 151
-3 25 -7 57 -9 70 -3 13 -7 47 -11 74 -3 28 -8 64 -11 80 -6 41 -12 106 -19
190 -4 39 -8 88 -10 110 -24 247 -24 929 -1 1075 3 14 7 65 11 115 4 49 9 99
10 110 2 11 6 43 9 70 10 78 17 138 22 165 2 14 7 45 10 70 3 25 8 54 10 65 4
20 24 134 29 170 2 11 13 64 24 119 12 54 23 108 25 120 11 54 62 256 101 401
171 621 439 1244 778 1810 66 110 245 387 256 395 4 3 15 19 25 35 30 48 183
251 275 365 302 374 693 763 1081 1075 526 422 1168 792 1805 1041 61 24 113
43 116 44 3 0 17 -12 31 -27z m5258 -33 c163 -56 317 -121 575 -245 373 -178
752 -410 1068 -653 55 -43 112 -86 127 -97 35 -26 159 -129 204 -170 12 -11
56 -49 96 -85 107 -93 431 -417 536 -535 48 -55 97 -109 107 -120 17 -18 240
-293 259 -320 4 -5 18 -23 31 -40 123 -157 316 -446 467 -700 107 -180 289
-537 375 -735 37 -85 73 -168 80 -185 68 -154 277 -768 300 -883 2 -9 17 -70
35 -135 17 -64 33 -125 35 -135 2 -9 13 -62 25 -117 11 -55 27 -134 35 -175 8
-41 17 -86 20 -100 2 -13 7 -40 10 -60 3 -20 7 -45 9 -55 2 -11 7 -42 10 -68
4 -27 9 -58 12 -70 2 -12 6 -51 10 -86 3 -36 7 -68 9 -71 1 -3 6 -43 10 -90 4
-47 9 -98 11 -115 23 -240 33 -711 19 -920 -2 -44 -7 -118 -10 -165 -6 -97
-13 -174 -31 -340 -23 -212 -91 -585 -150 -820 -5 -23 -34 -132 -40 -155 -3
-11 -6 -24 -8 -30 -50 -197 -214 -658 -292 -822 -42 -87 -46 -93 -75 -93 -77
0 -598 229 -939 413 -154 83 -551 330 -629 393 -9 6 -74 56 -146 110 -349 261
-760 645 -1066 995 -702 801 -1199 1715 -1504 2764 -26 88 -48 167 -50 175 -1
8 -8 35 -15 60 -7 25 -14 52 -15 60 -2 8 -13 56 -25 105 -39 173 -55 248 -70
335 -6 30 -12 66 -15 80 -2 13 -7 42 -11 64 -3 22 -7 43 -9 46 -2 3 -6 34 -10
70 -3 36 -8 72 -10 80 -2 8 -7 44 -10 80 -4 36 -9 72 -10 81 -2 9 -6 56 -10
105 -4 49 -9 96 -10 104 -22 118 -22 954 0 1100 2 14 6 63 10 110 3 47 8 96
10 110 2 14 7 50 10 80 7 59 41 295 50 345 45 249 105 507 164 712 98 340 261
775 314 841 6 7 15 11 21 9 6 -3 54 -19 106 -37z"/>
</g>
</svg>
